# xmcd CD database file generated by Grip 2.8
# 
# Track frame offsets:
#       150
#       19266
#       32362
#       57297
#       71633
#       92577
#       112253
#       137474
#       149658
#       177231
#       194405
#       212950
#       227915
# 
# Disc length: 3367 seconds
# 
# Revision: 3
# Processed by: cddbd v1.4b41PL1 Copyright (c) Steve Scherf et al.
# Submitted via: Grip 2.8
# 
DISCID=c20d250d
DTITLE=Ray Myers Band - Do Ya Dance?
DYEAR=1900
DGENRE=
TTITLE0=Lily Was Here
TTITLE1=Unchain My Heart
TTITLE2=Do Ya Dance?
TTITLE3=Rockin Good Way
TTITLE4=Night Rider
TTITLE5=Kiss and Say Goodbye
TTITLE6=I'm Ready
TTITLE7=Baby Work Out
TTITLE8=Wine Light
TTITLE9=Baby You Got What It Takes
TTITLE10=I'm Gonna Love You
TTITLE11=Funny How Time Slips Away
TTITLE12=I'm Gonna Bring It On Home
EXTD=
EXTT0=
EXTT1=
EXTT2=
EXTT3=
EXTT4=
EXTT5=
EXTT6=
EXTT7=
EXTT8=
EXTT9=
EXTT10=
EXTT11=
EXTT12=
PLAYORDER=
